<mxfile host="app.diagrams.net" agent="Mozilla/5.0 (Windows NT 10.0; Win64; x64) AppleWebKit/537.36 (KHTML, like Gecko) Chrome/136.0.0.0 Safari/537.36 Edg/136.0.0.0" version="26.2.6">
  <diagram id="C5RBs43oDa-KdzZeNtuy" name="Page-1">
    <mxGraphModel dx="1560" dy="1084" grid="1" gridSize="10" guides="1" tooltips="1" connect="1" arrows="1" fold="1" page="0" pageScale="1" pageWidth="1169" pageHeight="827" background="none" math="0" shadow="1">
      <root>
        <mxCell id="WIyWlLk6GJQsqaUBKTNV-0" />
        <mxCell id="WIyWlLk6GJQsqaUBKTNV-1" parent="WIyWlLk6GJQsqaUBKTNV-0" />
        <mxCell id="MFoLKY3Khg1JLuru2aXL-2" value="" style="rounded=0;whiteSpace=wrap;html=1;" parent="WIyWlLk6GJQsqaUBKTNV-1" vertex="1">
          <mxGeometry x="-340" y="-280" width="1675" height="1220" as="geometry" />
        </mxCell>
        <mxCell id="OVMAWo_7in3Q832gKpcp-0" value="" style="whiteSpace=wrap;html=1;" parent="WIyWlLk6GJQsqaUBKTNV-1" vertex="1">
          <mxGeometry x="-140" y="-80" width="1260" height="900" as="geometry" />
        </mxCell>
        <mxCell id="LcVzcdB1AOTKqNIbivNH-1" value="&lt;font style=&quot;font-size: 16px;&quot;&gt;Choose City&lt;/font&gt;" style="ellipse;whiteSpace=wrap;html=1;rounded=0;fillColor=#d5e8d4;strokeColor=#82b366;" parent="WIyWlLk6GJQsqaUBKTNV-1" vertex="1">
          <mxGeometry x="-20" y="20" width="150" height="80" as="geometry" />
        </mxCell>
        <mxCell id="LcVzcdB1AOTKqNIbivNH-2" value="&lt;span style=&quot;font-size: 16px;&quot;&gt;View Restaurant Profile&lt;/span&gt;" style="ellipse;whiteSpace=wrap;html=1;rounded=0;fillColor=#d5e8d4;strokeColor=#82b366;" parent="WIyWlLk6GJQsqaUBKTNV-1" vertex="1">
          <mxGeometry x="170" y="370" width="150" height="80" as="geometry" />
        </mxCell>
        <mxCell id="LcVzcdB1AOTKqNIbivNH-4" value="&lt;span style=&quot;font-size: 16px;&quot;&gt;Manage Profile&lt;/span&gt;" style="ellipse;whiteSpace=wrap;html=1;rounded=0;fillColor=#d5e8d4;strokeColor=#82b366;" parent="WIyWlLk6GJQsqaUBKTNV-1" vertex="1">
          <mxGeometry x="910" y="-20" width="150" height="80" as="geometry" />
        </mxCell>
        <mxCell id="LcVzcdB1AOTKqNIbivNH-7" value="&lt;span style=&quot;font-size: 16px;&quot;&gt;Choose Number of People&lt;/span&gt;" style="ellipse;whiteSpace=wrap;html=1;rounded=0;" parent="WIyWlLk6GJQsqaUBKTNV-1" vertex="1">
          <mxGeometry x="570" y="280" width="150" height="80" as="geometry" />
        </mxCell>
        <mxCell id="LcVzcdB1AOTKqNIbivNH-8" value="&lt;span style=&quot;font-size: 16px;&quot;&gt;Choose Date&lt;/span&gt;" style="ellipse;whiteSpace=wrap;html=1;rounded=0;" parent="WIyWlLk6GJQsqaUBKTNV-1" vertex="1">
          <mxGeometry x="310" y="280" width="150" height="80" as="geometry" />
        </mxCell>
        <mxCell id="OVMAWo_7in3Q832gKpcp-26" value="&lt;div&gt;&lt;br/&gt;&lt;/div&gt;" style="edgeStyle=none;shape=connector;rounded=0;orthogonalLoop=1;jettySize=auto;html=1;exitX=0;exitY=0;exitDx=0;exitDy=0;entryX=0.5;entryY=1;entryDx=0;entryDy=0;strokeColor=default;align=center;verticalAlign=middle;fontFamily=Helvetica;fontSize=11;fontColor=default;labelBackgroundColor=default;startFill=0;endArrow=classic;endFill=1;" parent="WIyWlLk6GJQsqaUBKTNV-1" source="LcVzcdB1AOTKqNIbivNH-9" target="LcVzcdB1AOTKqNIbivNH-8" edge="1">
          <mxGeometry x="-0.2721" y="30" relative="1" as="geometry">
            <mxPoint as="offset" />
          </mxGeometry>
        </mxCell>
        <mxCell id="OVMAWo_7in3Q832gKpcp-30" value="&amp;lt;&amp;lt;include&amp;gt;&amp;gt;" style="edgeLabel;html=1;align=center;verticalAlign=middle;resizable=0;points=[];fontFamily=Helvetica;fontSize=11;fontColor=default;labelBackgroundColor=default;" parent="OVMAWo_7in3Q832gKpcp-26" vertex="1" connectable="0">
          <mxGeometry x="-0.1694" y="2" relative="1" as="geometry">
            <mxPoint x="-22" y="29" as="offset" />
          </mxGeometry>
        </mxCell>
        <mxCell id="OVMAWo_7in3Q832gKpcp-27" style="edgeStyle=none;shape=connector;rounded=0;orthogonalLoop=1;jettySize=auto;html=1;exitX=0.5;exitY=0;exitDx=0;exitDy=0;entryX=0;entryY=1;entryDx=0;entryDy=0;strokeColor=default;align=center;verticalAlign=middle;fontFamily=Helvetica;fontSize=11;fontColor=default;labelBackgroundColor=default;startFill=0;endArrow=classic;endFill=1;" parent="WIyWlLk6GJQsqaUBKTNV-1" source="LcVzcdB1AOTKqNIbivNH-9" target="LcVzcdB1AOTKqNIbivNH-7" edge="1">
          <mxGeometry relative="1" as="geometry" />
        </mxCell>
        <mxCell id="OVMAWo_7in3Q832gKpcp-29" value="&amp;lt;&amp;lt;include&amp;gt;&amp;gt;" style="edgeLabel;html=1;align=center;verticalAlign=middle;resizable=0;points=[];fontFamily=Helvetica;fontSize=11;fontColor=default;labelBackgroundColor=default;" parent="OVMAWo_7in3Q832gKpcp-27" vertex="1" connectable="0">
          <mxGeometry x="-0.0899" y="2" relative="1" as="geometry">
            <mxPoint x="27" y="24" as="offset" />
          </mxGeometry>
        </mxCell>
        <mxCell id="LcVzcdB1AOTKqNIbivNH-9" value="&lt;span style=&quot;font-size: 16px;&quot;&gt;Create Reservation&lt;/span&gt;" style="ellipse;whiteSpace=wrap;html=1;rounded=0;fillColor=#d5e8d4;strokeColor=#82b366;" parent="WIyWlLk6GJQsqaUBKTNV-1" vertex="1">
          <mxGeometry x="430" y="520" width="150" height="80" as="geometry" />
        </mxCell>
        <mxCell id="LcVzcdB1AOTKqNIbivNH-33" value="&amp;lt;&amp;lt;extend&amp;gt;&amp;gt;" style="orthogonalLoop=1;jettySize=auto;html=1;exitX=0.5;exitY=0;exitDx=0;exitDy=0;entryX=0.5;entryY=1;entryDx=0;entryDy=0;dashed=1;endArrow=classic;endFill=1;" parent="WIyWlLk6GJQsqaUBKTNV-1" source="LcVzcdB1AOTKqNIbivNH-10" target="LcVzcdB1AOTKqNIbivNH-9" edge="1">
          <mxGeometry x="-0.3103" y="-34" relative="1" as="geometry">
            <mxPoint as="offset" />
          </mxGeometry>
        </mxCell>
        <mxCell id="LcVzcdB1AOTKqNIbivNH-10" value="&lt;span style=&quot;font-size: 16px;&quot;&gt;Prepay Reservation&lt;/span&gt;" style="ellipse;whiteSpace=wrap;html=1;rounded=0;" parent="WIyWlLk6GJQsqaUBKTNV-1" vertex="1">
          <mxGeometry x="450" y="680" width="150" height="80" as="geometry" />
        </mxCell>
        <mxCell id="LcVzcdB1AOTKqNIbivNH-11" value="&lt;span style=&quot;font-size: 16px;&quot;&gt;Rate Restaurant&lt;/span&gt;" style="ellipse;whiteSpace=wrap;html=1;rounded=0;fillColor=#d5e8d4;strokeColor=#82b366;" parent="WIyWlLk6GJQsqaUBKTNV-1" vertex="1">
          <mxGeometry x="80" y="640" width="150" height="80" as="geometry" />
        </mxCell>
        <mxCell id="LcVzcdB1AOTKqNIbivNH-17" style="rounded=0;orthogonalLoop=1;jettySize=auto;html=1;exitX=0.9;exitY=0.5;exitDx=0;exitDy=0;exitPerimeter=0;entryX=0;entryY=0.5;entryDx=0;entryDy=0;endArrow=none;startFill=0;" parent="WIyWlLk6GJQsqaUBKTNV-1" source="LcVzcdB1AOTKqNIbivNH-13" target="LcVzcdB1AOTKqNIbivNH-1" edge="1">
          <mxGeometry relative="1" as="geometry" />
        </mxCell>
        <mxCell id="OVMAWo_7in3Q832gKpcp-2" style="rounded=0;orthogonalLoop=1;jettySize=auto;html=1;exitX=0.9;exitY=0.5;exitDx=0;exitDy=0;exitPerimeter=0;entryX=0;entryY=0.5;entryDx=0;entryDy=0;endArrow=none;startFill=0;" parent="WIyWlLk6GJQsqaUBKTNV-1" source="LcVzcdB1AOTKqNIbivNH-13" target="OVMAWo_7in3Q832gKpcp-1" edge="1">
          <mxGeometry relative="1" as="geometry" />
        </mxCell>
        <mxCell id="OVMAWo_7in3Q832gKpcp-12" style="edgeStyle=none;shape=connector;rounded=0;orthogonalLoop=1;jettySize=auto;html=1;exitX=0.9;exitY=0.5;exitDx=0;exitDy=0;exitPerimeter=0;entryX=0;entryY=0.5;entryDx=0;entryDy=0;strokeColor=default;align=center;verticalAlign=middle;fontFamily=Helvetica;fontSize=11;fontColor=default;labelBackgroundColor=default;startFill=0;endArrow=none;" parent="WIyWlLk6GJQsqaUBKTNV-1" source="LcVzcdB1AOTKqNIbivNH-13" target="LcVzcdB1AOTKqNIbivNH-9" edge="1">
          <mxGeometry relative="1" as="geometry" />
        </mxCell>
        <mxCell id="OVMAWo_7in3Q832gKpcp-31" style="edgeStyle=none;shape=connector;rounded=0;orthogonalLoop=1;jettySize=auto;html=1;exitX=0.9;exitY=0.5;exitDx=0;exitDy=0;exitPerimeter=0;entryX=0;entryY=0;entryDx=0;entryDy=0;strokeColor=default;align=center;verticalAlign=middle;fontFamily=Helvetica;fontSize=11;fontColor=default;labelBackgroundColor=default;startFill=0;endArrow=none;endFill=1;" parent="WIyWlLk6GJQsqaUBKTNV-1" source="LcVzcdB1AOTKqNIbivNH-13" target="LcVzcdB1AOTKqNIbivNH-11" edge="1">
          <mxGeometry relative="1" as="geometry" />
        </mxCell>
        <mxCell id="0LxzJlnNJboIilkyIgv5-15" style="rounded=0;orthogonalLoop=1;jettySize=auto;html=1;exitX=0.9;exitY=0.5;exitDx=0;exitDy=0;exitPerimeter=0;entryX=0;entryY=0;entryDx=0;entryDy=0;endArrow=none;startFill=0;" parent="WIyWlLk6GJQsqaUBKTNV-1" source="LcVzcdB1AOTKqNIbivNH-13" target="0LxzJlnNJboIilkyIgv5-9" edge="1">
          <mxGeometry relative="1" as="geometry" />
        </mxCell>
        <mxCell id="LcVzcdB1AOTKqNIbivNH-13" value="&lt;div&gt;&lt;br&gt;&lt;/div&gt;&lt;div&gt;&lt;br&gt;&lt;/div&gt;&lt;div&gt;&lt;br&gt;&lt;/div&gt;&lt;div&gt;&lt;br&gt;&lt;/div&gt;" style="shape=actor;whiteSpace=wrap;html=1;rounded=0;" parent="WIyWlLk6GJQsqaUBKTNV-1" vertex="1">
          <mxGeometry x="-250" y="320" width="60" height="85" as="geometry" />
        </mxCell>
        <mxCell id="LcVzcdB1AOTKqNIbivNH-21" style="rounded=0;orthogonalLoop=1;jettySize=auto;html=1;exitX=0.1;exitY=0.5;exitDx=0;exitDy=0;exitPerimeter=0;entryX=1;entryY=0.5;entryDx=0;entryDy=0;endArrow=none;startFill=0;" parent="WIyWlLk6GJQsqaUBKTNV-1" source="LcVzcdB1AOTKqNIbivNH-20" target="OVMAWo_7in3Q832gKpcp-32" edge="1">
          <mxGeometry relative="1" as="geometry" />
        </mxCell>
        <mxCell id="0LxzJlnNJboIilkyIgv5-14" style="rounded=0;orthogonalLoop=1;jettySize=auto;html=1;exitX=0.1;exitY=0.5;exitDx=0;exitDy=0;exitPerimeter=0;entryX=1;entryY=0;entryDx=0;entryDy=0;endArrow=none;startFill=0;" parent="WIyWlLk6GJQsqaUBKTNV-1" source="LcVzcdB1AOTKqNIbivNH-20" target="0LxzJlnNJboIilkyIgv5-10" edge="1">
          <mxGeometry relative="1" as="geometry" />
        </mxCell>
        <mxCell id="0LxzJlnNJboIilkyIgv5-26" style="rounded=0;orthogonalLoop=1;jettySize=auto;html=1;exitX=0.1;exitY=0.5;exitDx=0;exitDy=0;exitPerimeter=0;entryX=1;entryY=0.5;entryDx=0;entryDy=0;endArrow=none;startFill=0;" parent="WIyWlLk6GJQsqaUBKTNV-1" source="LcVzcdB1AOTKqNIbivNH-20" target="0LxzJlnNJboIilkyIgv5-11" edge="1">
          <mxGeometry relative="1" as="geometry" />
        </mxCell>
        <mxCell id="LcVzcdB1AOTKqNIbivNH-20" value="&lt;div&gt;&lt;br&gt;&lt;/div&gt;&lt;div&gt;&lt;br&gt;&lt;/div&gt;&lt;div&gt;&lt;br&gt;&lt;/div&gt;&lt;div&gt;&lt;br&gt;&lt;/div&gt;" style="shape=actor;whiteSpace=wrap;html=1;rounded=0;fillColor=light-dark(#ffffff, #ededed);" parent="WIyWlLk6GJQsqaUBKTNV-1" vertex="1">
          <mxGeometry x="1180" y="320" width="60" height="85" as="geometry" />
        </mxCell>
        <mxCell id="LcVzcdB1AOTKqNIbivNH-22" style="rounded=0;orthogonalLoop=1;jettySize=auto;html=1;exitX=1;exitY=0.5;exitDx=0;exitDy=0;entryX=0.1;entryY=0.5;entryDx=0;entryDy=0;entryPerimeter=0;endArrow=none;startFill=0;" parent="WIyWlLk6GJQsqaUBKTNV-1" source="LcVzcdB1AOTKqNIbivNH-4" target="LcVzcdB1AOTKqNIbivNH-20" edge="1">
          <mxGeometry relative="1" as="geometry" />
        </mxCell>
        <mxCell id="LcVzcdB1AOTKqNIbivNH-23" style="rounded=0;orthogonalLoop=1;jettySize=auto;html=1;exitX=1;exitY=0.5;exitDx=0;exitDy=0;entryX=0.1;entryY=0.5;entryDx=0;entryDy=0;entryPerimeter=0;endArrow=none;startFill=0;" parent="WIyWlLk6GJQsqaUBKTNV-1" source="LcVzcdB1AOTKqNIbivNH-10" target="LcVzcdB1AOTKqNIbivNH-20" edge="1">
          <mxGeometry relative="1" as="geometry" />
        </mxCell>
        <mxCell id="LcVzcdB1AOTKqNIbivNH-24" value="&lt;span style=&quot;font-size: 16px;&quot;&gt;Customer&lt;/span&gt;" style="rounded=0;whiteSpace=wrap;html=1;" parent="WIyWlLk6GJQsqaUBKTNV-1" vertex="1">
          <mxGeometry x="-265" y="420" width="90" height="30" as="geometry" />
        </mxCell>
        <mxCell id="LcVzcdB1AOTKqNIbivNH-27" value="&lt;span style=&quot;font-size: 16px;&quot;&gt;Restaurant&lt;/span&gt;" style="rounded=0;whiteSpace=wrap;html=1;" parent="WIyWlLk6GJQsqaUBKTNV-1" vertex="1">
          <mxGeometry x="1165" y="420" width="90" height="30" as="geometry" />
        </mxCell>
        <mxCell id="OVMAWo_7in3Q832gKpcp-21" style="edgeStyle=none;rounded=0;orthogonalLoop=1;jettySize=auto;html=1;exitX=1;exitY=1;exitDx=0;exitDy=0;entryX=0;entryY=0;entryDx=0;entryDy=0;strokeColor=default;align=center;verticalAlign=middle;fontFamily=Helvetica;fontSize=11;fontColor=default;labelBackgroundColor=default;startFill=0;endArrow=classic;endFill=1;" parent="WIyWlLk6GJQsqaUBKTNV-1" source="OVMAWo_7in3Q832gKpcp-1" target="LcVzcdB1AOTKqNIbivNH-7" edge="1">
          <mxGeometry relative="1" as="geometry" />
        </mxCell>
        <mxCell id="OVMAWo_7in3Q832gKpcp-22" value="&amp;lt;&amp;lt;include&amp;gt;&amp;gt;" style="edgeLabel;html=1;align=center;verticalAlign=middle;resizable=0;points=[];fontFamily=Helvetica;fontSize=11;fontColor=default;labelBackgroundColor=default;" parent="OVMAWo_7in3Q832gKpcp-21" vertex="1" connectable="0">
          <mxGeometry x="-0.0312" y="4" relative="1" as="geometry">
            <mxPoint x="43" y="13" as="offset" />
          </mxGeometry>
        </mxCell>
        <mxCell id="OVMAWo_7in3Q832gKpcp-23" style="edgeStyle=none;shape=connector;rounded=0;orthogonalLoop=1;jettySize=auto;html=1;exitX=0;exitY=1;exitDx=0;exitDy=0;entryX=0.5;entryY=0;entryDx=0;entryDy=0;strokeColor=default;align=center;verticalAlign=middle;fontFamily=Helvetica;fontSize=11;fontColor=default;labelBackgroundColor=default;startFill=0;endArrow=classic;endFill=1;" parent="WIyWlLk6GJQsqaUBKTNV-1" source="OVMAWo_7in3Q832gKpcp-1" target="LcVzcdB1AOTKqNIbivNH-8" edge="1">
          <mxGeometry relative="1" as="geometry" />
        </mxCell>
        <mxCell id="OVMAWo_7in3Q832gKpcp-24" value="&amp;lt;&amp;lt;include&amp;gt;&amp;gt;" style="edgeLabel;html=1;align=center;verticalAlign=middle;resizable=0;points=[];fontFamily=Helvetica;fontSize=11;fontColor=default;labelBackgroundColor=default;" parent="OVMAWo_7in3Q832gKpcp-23" vertex="1" connectable="0">
          <mxGeometry x="-0.0741" y="-3" relative="1" as="geometry">
            <mxPoint x="33" y="19" as="offset" />
          </mxGeometry>
        </mxCell>
        <mxCell id="OVMAWo_7in3Q832gKpcp-1" value="&lt;span style=&quot;font-size: 16px;&quot;&gt;Search Restaurant&lt;/span&gt;" style="ellipse;whiteSpace=wrap;html=1;rounded=0;fillColor=#d5e8d4;strokeColor=#82b366;" parent="WIyWlLk6GJQsqaUBKTNV-1" vertex="1">
          <mxGeometry x="390" y="140" width="150" height="80" as="geometry" />
        </mxCell>
        <mxCell id="OVMAWo_7in3Q832gKpcp-13" style="edgeStyle=none;shape=connector;rounded=0;orthogonalLoop=1;jettySize=auto;html=1;exitX=0.9;exitY=0.5;exitDx=0;exitDy=0;exitPerimeter=0;entryX=0;entryY=0.5;entryDx=0;entryDy=0;strokeColor=default;align=center;verticalAlign=middle;fontFamily=Helvetica;fontSize=11;fontColor=default;labelBackgroundColor=default;startFill=0;endArrow=none;" parent="WIyWlLk6GJQsqaUBKTNV-1" source="LcVzcdB1AOTKqNIbivNH-13" target="LcVzcdB1AOTKqNIbivNH-2" edge="1">
          <mxGeometry relative="1" as="geometry" />
        </mxCell>
        <mxCell id="OVMAWo_7in3Q832gKpcp-32" value="&lt;span style=&quot;font-size: 16px;&quot;&gt;Accept/Decline Reservation&lt;/span&gt;" style="ellipse;whiteSpace=wrap;html=1;rounded=0;fillColor=#d5e8d4;strokeColor=#82b366;" parent="WIyWlLk6GJQsqaUBKTNV-1" vertex="1">
          <mxGeometry x="910" y="250" width="150" height="80" as="geometry" />
        </mxCell>
        <mxCell id="0LxzJlnNJboIilkyIgv5-8" value="&lt;span style=&quot;font-size: 16px;&quot;&gt;Help&lt;/span&gt;" style="ellipse;whiteSpace=wrap;html=1;rounded=0;fillColor=#f8cecc;strokeColor=#b85450;" parent="WIyWlLk6GJQsqaUBKTNV-1" vertex="1">
          <mxGeometry x="710" y="180" width="150" height="80" as="geometry" />
        </mxCell>
        <mxCell id="0LxzJlnNJboIilkyIgv5-9" value="&lt;span style=&quot;font-size: 16px;&quot;&gt;Subscription&lt;/span&gt;" style="ellipse;whiteSpace=wrap;html=1;rounded=0;fillColor=#d5e8d4;strokeColor=#82b366;" parent="WIyWlLk6GJQsqaUBKTNV-1" vertex="1">
          <mxGeometry x="170" y="540" width="150" height="80" as="geometry" />
        </mxCell>
        <mxCell id="0LxzJlnNJboIilkyIgv5-10" value="&lt;span style=&quot;font-size: 16px;&quot;&gt;View Statistics &amp;amp; Ratings&lt;/span&gt;" style="ellipse;whiteSpace=wrap;html=1;rounded=0;fillColor=#d5e8d4;strokeColor=#82b366;" parent="WIyWlLk6GJQsqaUBKTNV-1" vertex="1">
          <mxGeometry x="910" y="560" width="150" height="80" as="geometry" />
        </mxCell>
        <mxCell id="0LxzJlnNJboIilkyIgv5-11" value="&lt;span style=&quot;font-size: 16px;&quot;&gt;Manage Hours &amp;amp; Availability&lt;/span&gt;" style="ellipse;whiteSpace=wrap;html=1;rounded=0;fillColor=#d5e8d4;strokeColor=#82b366;" parent="WIyWlLk6GJQsqaUBKTNV-1" vertex="1">
          <mxGeometry x="910" y="110" width="150" height="80" as="geometry" />
        </mxCell>
        <mxCell id="0LxzJlnNJboIilkyIgv5-13" value="&lt;span style=&quot;font-size: 16px;&quot;&gt;Waitlist&lt;/span&gt;" style="ellipse;whiteSpace=wrap;html=1;rounded=0;fillColor=#f8cecc;strokeColor=#b85450;" parent="WIyWlLk6GJQsqaUBKTNV-1" vertex="1">
          <mxGeometry x="640" y="410" width="150" height="80" as="geometry" />
        </mxCell>
        <mxCell id="0LxzJlnNJboIilkyIgv5-17" value="&lt;span style=&quot;font-size: 16px;&quot;&gt;Choose Type of Food&lt;/span&gt;" style="ellipse;whiteSpace=wrap;html=1;rounded=0;" parent="WIyWlLk6GJQsqaUBKTNV-1" vertex="1">
          <mxGeometry x="200" y="40" width="150" height="80" as="geometry" />
        </mxCell>
        <mxCell id="0LxzJlnNJboIilkyIgv5-18" value="&lt;span style=&quot;font-size: 16px;&quot;&gt;Choose by Rating&lt;/span&gt;" style="ellipse;whiteSpace=wrap;html=1;rounded=0;" parent="WIyWlLk6GJQsqaUBKTNV-1" vertex="1">
          <mxGeometry x="380" y="-20" width="150" height="80" as="geometry" />
        </mxCell>
        <mxCell id="0LxzJlnNJboIilkyIgv5-19" value="&lt;span style=&quot;font-size: 16px;&quot;&gt;Choose by Price&lt;/span&gt;" style="ellipse;whiteSpace=wrap;html=1;rounded=0;" parent="WIyWlLk6GJQsqaUBKTNV-1" vertex="1">
          <mxGeometry x="580" y="40" width="150" height="80" as="geometry" />
        </mxCell>
        <mxCell id="0LxzJlnNJboIilkyIgv5-20" style="edgeStyle=none;shape=connector;rounded=0;orthogonalLoop=1;jettySize=auto;html=1;exitX=0;exitY=0;exitDx=0;exitDy=0;entryX=1;entryY=1;entryDx=0;entryDy=0;strokeColor=default;align=center;verticalAlign=middle;fontFamily=Helvetica;fontSize=11;fontColor=default;labelBackgroundColor=default;startFill=0;endArrow=classic;endFill=1;" parent="WIyWlLk6GJQsqaUBKTNV-1" source="OVMAWo_7in3Q832gKpcp-1" target="0LxzJlnNJboIilkyIgv5-17" edge="1">
          <mxGeometry relative="1" as="geometry">
            <mxPoint x="422" y="218" as="sourcePoint" />
            <mxPoint x="395" y="290" as="targetPoint" />
          </mxGeometry>
        </mxCell>
        <mxCell id="0LxzJlnNJboIilkyIgv5-21" value="&amp;lt;&amp;lt;include&amp;gt;&amp;gt;" style="edgeLabel;html=1;align=center;verticalAlign=middle;resizable=0;points=[];fontFamily=Helvetica;fontSize=11;fontColor=default;labelBackgroundColor=default;" parent="0LxzJlnNJboIilkyIgv5-20" vertex="1" connectable="0">
          <mxGeometry x="-0.0741" y="-3" relative="1" as="geometry">
            <mxPoint x="-14" y="21" as="offset" />
          </mxGeometry>
        </mxCell>
        <mxCell id="0LxzJlnNJboIilkyIgv5-22" style="edgeStyle=none;shape=connector;rounded=0;orthogonalLoop=1;jettySize=auto;html=1;exitX=0.5;exitY=0;exitDx=0;exitDy=0;entryX=0.5;entryY=1;entryDx=0;entryDy=0;strokeColor=default;align=center;verticalAlign=middle;fontFamily=Helvetica;fontSize=11;fontColor=default;labelBackgroundColor=default;startFill=0;endArrow=classic;endFill=1;" parent="WIyWlLk6GJQsqaUBKTNV-1" source="OVMAWo_7in3Q832gKpcp-1" target="0LxzJlnNJboIilkyIgv5-18" edge="1">
          <mxGeometry relative="1" as="geometry">
            <mxPoint x="432" y="228" as="sourcePoint" />
            <mxPoint x="405" y="300" as="targetPoint" />
          </mxGeometry>
        </mxCell>
        <mxCell id="0LxzJlnNJboIilkyIgv5-23" value="&amp;lt;&amp;lt;include&amp;gt;&amp;gt;" style="edgeLabel;html=1;align=center;verticalAlign=middle;resizable=0;points=[];fontFamily=Helvetica;fontSize=11;fontColor=default;labelBackgroundColor=default;" parent="0LxzJlnNJboIilkyIgv5-22" vertex="1" connectable="0">
          <mxGeometry x="-0.0741" y="-3" relative="1" as="geometry">
            <mxPoint x="33" y="19" as="offset" />
          </mxGeometry>
        </mxCell>
        <mxCell id="0LxzJlnNJboIilkyIgv5-24" style="edgeStyle=none;shape=connector;rounded=0;orthogonalLoop=1;jettySize=auto;html=1;exitX=1;exitY=0;exitDx=0;exitDy=0;entryX=0;entryY=1;entryDx=0;entryDy=0;strokeColor=default;align=center;verticalAlign=middle;fontFamily=Helvetica;fontSize=11;fontColor=default;labelBackgroundColor=default;startFill=0;endArrow=classic;endFill=1;" parent="WIyWlLk6GJQsqaUBKTNV-1" source="OVMAWo_7in3Q832gKpcp-1" target="0LxzJlnNJboIilkyIgv5-19" edge="1">
          <mxGeometry relative="1" as="geometry">
            <mxPoint x="442" y="238" as="sourcePoint" />
            <mxPoint x="415" y="310" as="targetPoint" />
          </mxGeometry>
        </mxCell>
        <mxCell id="0LxzJlnNJboIilkyIgv5-25" value="&amp;lt;&amp;lt;include&amp;gt;&amp;gt;" style="edgeLabel;html=1;align=center;verticalAlign=middle;resizable=0;points=[];fontFamily=Helvetica;fontSize=11;fontColor=default;labelBackgroundColor=default;" parent="0LxzJlnNJboIilkyIgv5-24" vertex="1" connectable="0">
          <mxGeometry x="-0.0741" y="-3" relative="1" as="geometry">
            <mxPoint x="12" y="16" as="offset" />
          </mxGeometry>
        </mxCell>
      </root>
    </mxGraphModel>
  </diagram>
</mxfile>
